<?xml version="1.0" encoding="iso-8859-1"?><!-- Generator: Adobe Illustrator 19.0.0, SVG Export Plug-In . SVG Version: 6.00 Build 0)  --><svg xmlns="http://www.w3.org/2000/svg" xmlns:xlink="http://www.w3.org/1999/xlink" version="1.1" id="Layer_1" x="0px" y="0px" viewBox="0 0 512 512" style="enable-background:new 0 0 512 512;" xml:space="preserve">
<circle style="fill:#FFC400;" cx="256" cy="256" r="256"/>
<path style="fill:#D32F2F;" d="M404.945,181.527H107.055V153.6c0-15.421,12.507-27.927,27.927-27.927h242.036  c15.421,0,27.927,12.507,27.927,27.927V181.527z"/>
<path style="fill:#EF5350;" d="M244.14,125.673H134.982c-15.421,0-27.927,12.507-27.927,27.927v27.927h81.231L244.14,125.673z"/>
<path style="fill:#FFFFFF;" d="M404.945,377.018c0,15.421-12.507,27.927-27.927,27.927H134.982  c-15.421,0-27.927-12.507-27.927-27.927V181.527h297.891V377.018z"/>
<rect x="209.455" y="218.764" style="fill:#64B5F6;" width="46.545" height="41.891"/>
<g>
	<rect x="204.8" y="269.964" style="fill:#E3F2FD;" width="46.545" height="41.891"/>
	<rect x="260.655" y="269.964" style="fill:#E3F2FD;" width="46.545" height="41.891"/>
	<rect x="144.291" y="218.764" style="fill:#E3F2FD;" width="51.2" height="41.891"/>
	<rect x="260.655" y="218.764" style="fill:#E3F2FD;" width="46.545" height="41.891"/>
</g>
<rect x="260.655" y="321.164" style="fill:#64B5F6;" width="46.545" height="46.545"/>
<g>
	<rect x="316.509" y="269.964" style="fill:#E3F2FD;" width="46.545" height="41.891"/>
	<rect x="316.509" y="218.764" style="fill:#E3F2FD;" width="46.545" height="41.891"/>
	<rect x="316.509" y="321.164" style="fill:#E3F2FD;" width="46.545" height="46.545"/>
	<rect x="144.291" y="269.964" style="fill:#E3F2FD;" width="51.2" height="41.891"/>
	<rect x="144.291" y="321.164" style="fill:#E3F2FD;" width="51.2" height="46.545"/>
	<rect x="204.8" y="321.164" style="fill:#E3F2FD;" width="46.545" height="46.545"/>
</g>
<g>
	<path style="fill:#212121;" d="M172.218,148.945c0,7.675-6.288,13.964-13.964,13.964l0,0c-7.675,0-13.964-6.288-13.964-13.964   v-27.927c0-7.675,6.288-13.964,13.964-13.964l0,0c7.675,0,13.964,6.288,13.964,13.964V148.945z"/>
	<path style="fill:#212121;" d="M367.709,148.945c0,7.675-6.288,13.964-13.964,13.964l0,0c-7.675,0-13.964-6.288-13.964-13.964   v-27.927c0-7.675,6.288-13.964,13.964-13.964l0,0c7.675,0,13.964,6.288,13.964,13.964V148.945z"/>
	<path style="fill:#212121;" d="M269.964,148.945c0,7.675-6.288,13.964-13.964,13.964l0,0c-7.675,0-13.964-6.288-13.964-13.964   v-27.927c0-7.675,6.288-13.964,13.964-13.964l0,0c7.675,0,13.964,6.288,13.964,13.964V148.945z"/>
</g>
<g>
</g>
<g>
</g>
<g>
</g>
<g>
</g>
<g>
</g>
<g>
</g>
<g>
</g>
<g>
</g>
<g>
</g>
<g>
</g>
<g>
</g>
<g>
</g>
<g>
</g>
<g>
</g>
<g>
</g>
</svg>